<?xml version="1.0" standalone="no"?>
<!DOCTYPE svg PUBLIC "-//W3C//DTD SVG 20010904//EN"
 "http://www.w3.org/TR/2001/REC-SVG-20010904/DTD/svg10.dtd">
<svg version="1.0" xmlns="http://www.w3.org/2000/svg"
 width="198.000000pt" height="198.000000pt" viewBox="0 0 198.000000 198.000000"
 preserveAspectRatio="xMidYMid meet">

<g transform="translate(0.000000,198.000000) scale(0.100000,-0.100000)"
fill="#000000" stroke="none">
<path d="M347 1949 c-105 -25 -199 -91 -258 -181 -66 -103 -69 -131 -69 -692
l0 -494 63 42 c35 23 91 55 125 71 l62 29 0 295 c0 216 4 314 14 362 37 171
144 278 315 315 94 20 688 20 782 0 177 -38 289 -155 319 -336 8 -45 10 -184
8 -416 -4 -327 -5 -353 -25 -406 -57 -152 -160 -234 -327 -260 l-74 -12 13
-26 c13 -24 47 -137 59 -193 6 -27 7 -27 94 -27 121 0 207 16 277 50 73 35
147 106 181 171 53 106 54 117 54 746 0 389 -4 600 -11 635 -25 116 -86 207
-181 269 -106 68 -120 69 -790 68 -326 -1 -610 -5 -631 -10z"/>
<path d="M663 1570 c-127 -14 -212 -80 -243 -190 -13 -44 -25 -485 -16 -561
l7 -56 107 0 c59 1 124 -2 145 -6 l38 -8 -25 38 c-42 65 -59 134 -54 226 3 69
9 92 37 145 41 75 103 135 179 170 49 23 70 27 152 27 87 0 101 -3 161 -32 79
-39 140 -102 177 -181 24 -50 27 -69 27 -157 0 -93 -3 -104 -32 -160 -56 -108
-166 -189 -270 -202 l-48 -5 104 -105 104 -106 82 5 c100 7 157 30 207 86 60
66 68 112 75 397 7 324 -5 475 -44 547 -30 54 -87 99 -153 119 -43 13 -616 21
-717 9z m772 -135 c80 -79 -40 -199 -122 -122 -54 50 -13 147 62 147 25 0 44
-8 60 -25z"/>
<path d="M928 1216 c-160 -44 -225 -236 -124 -368 119 -157 374 -100 415 92
37 172 -123 323 -291 276z"/>
</g>
</svg>
